<?xml version="1.0" encoding="utf-8"?>
<!-- Generator: Adobe Illustrator 21.0.0, SVG Export Plug-In . SVG Version: 6.00 Build 0)  -->
<svg version="1.1" id="Layer_1" xmlns="http://www.w3.org/2000/svg" xmlns:xlink="http://www.w3.org/1999/xlink" x="0px" y="0px"
	 viewBox="0 0 20 20" enable-background="new 0 0 20 20" xml:space="preserve">
<g>
	<path fill-rule="evenodd" clip-rule="evenodd" fill="#DDDDDD" d="M13.2,19.1h-11c-1.2,0-2.2-1-2.2-2.2V2.2C0,1,1,0,2.2,0h11
		c1.2,0,2.2,1,2.2,2.2v14.7C15.4,18.2,14.5,19.1,13.2,19.1z"/>
	<rect x="3.2" y="14.5" fill-rule="evenodd" clip-rule="evenodd" fill="#2473E4" width="6.4" height="1.6"/>
	<rect x="3.2" y="9.7" fill-rule="evenodd" clip-rule="evenodd" fill="#2473E4" width="8.1" height="1.6"/>
	<rect x="3.2" y="12.1" fill-rule="evenodd" clip-rule="evenodd" fill="#2473E4" width="9.7" height="1.6"/>
	<rect x="3.2" y="7.2" fill-rule="evenodd" clip-rule="evenodd" fill="#2473E4" width="10.5" height="1.6"/>
	<rect x="3.2" y="4.8" fill-rule="evenodd" clip-rule="evenodd" fill="#DC370C" width="8.1" height="1.6"/>
	<g>
		<circle fill-rule="evenodd" clip-rule="evenodd" fill="#DC370C" cx="14.3" cy="14.2" r="5.5"/>
		<path fill-rule="evenodd" clip-rule="evenodd" fill="#FFFFFF" d="M16.6,15.2l-1.9-0.9V11c0-0.2-0.2-0.4-0.4-0.4
			c-0.2,0-0.4,0.2-0.4,0.4v3.4c0,0,0,0,0,0c0,0.1,0.1,0.3,0.2,0.4l2.2,1.1c0.2,0.1,0.4,0,0.5-0.2l0-0.1
			C16.9,15.5,16.8,15.3,16.6,15.2z"/>
	</g>
	<path fill="#DC370C" d="M14.3,8.3c-3.2,0-5.9,2.6-5.9,5.9c0,3.2,2.6,5.9,5.9,5.9c3.2,0,5.9-2.6,5.9-5.9C20.2,11,17.6,8.3,14.3,8.3z
		 M14.3,19.3c-2.8,0-5.1-2.3-5.1-5.1c0-2.8,2.3-5.1,5.1-5.1s5.1,2.3,5.1,5.1C19.4,17,17.1,19.3,14.3,19.3z"/>
</g>
</svg>
