<?xml version="1.0" encoding="utf-8"?>
<!-- Generator: Adobe Illustrator 21.0.0, SVG Export Plug-In . SVG Version: 6.00 Build 0)  -->
<svg version="1.1" id="Layer_1" xmlns="http://www.w3.org/2000/svg" xmlns:xlink="http://www.w3.org/1999/xlink" x="0px" y="0px"
	 viewBox="0 0 20 20" enable-background="new 0 0 20 20" xml:space="preserve">
<g>
	<g>
		<path fill="#FF580E" d="M19.5,7.1l-6.8-2C12.4,5,12.2,5,12,5.1L4.8,7.2c-0.1,0-0.2,0.1-0.2,0.2V17c0,0.5,0.3,0.9,0.8,1.1L12,20
			c0.2,0.1,0.4,0.1,0.6,0l6.6-1.9C19.7,18,20,17.5,20,17V7.8C20,7.5,19.8,7.2,19.5,7.1z M19,17c0,0.1,0,0.1-0.1,0.1l-6.6,1.9l0,0
			c0,0,0,0,0,0l-6.6-1.9c-0.1,0-0.1-0.1-0.1-0.1V8L12.3,6L19,8V17z"/>
		<path fill="#FF580E" d="M12.3,20.1l-7.1-2c-0.4-0.1-0.6-0.4-0.6-0.8V7.6c0-0.2,0.2-0.3,0.3-0.2l7.4,1.8V20.1z"/>
		<path fill="#FF580E" d="M19.7,7.3l-7.4,1.9v10.9l7.1-2.1c0.3-0.1,0.6-0.4,0.6-0.8V7.6C20,7.4,19.8,7.3,19.7,7.3z M19,17.1
			l-5.8,1.7V9.9L19,8.5V17.1z"/>
	</g>
	<path fill="#999999" d="M12.5,4.2h-4c-0.2,0-0.3,0.2-0.2,0.4l2,2.7c0.1,0.1,0.3,0.1,0.4,0l2-2.7C12.8,4.4,12.7,4.2,12.5,4.2z"/>
	<path fill="#999999" d="M11,4.8C10.7,2,8.3-0.1,5.5-0.1C2.5-0.1,0,2.4,0,5.4h1c0-2.5,2-4.5,4.5-4.5c2.3,0,4.2,1.7,4.5,3.9H11z"/>
</g>
</svg>
