<svg id="Layer_1" data-name="Layer 1" xmlns="http://www.w3.org/2000/svg" viewBox="0 0 20 20"><defs><style>.cls-1{fill:#ccc;}.cls-2{fill:#fc6;fill-rule:evenodd;}.cls-3{fill:gray;}.cls-4{fill:#999;}</style></defs><title>_</title><path class="cls-1" d="M10.88,9.11a1.27,1.27,0,0,0-1.79,0L0.37,17.82a1.27,1.27,0,0,0,1.79,1.79l8.72-8.71A1.27,1.27,0,0,0,10.88,9.11Z"/><path class="cls-2" d="M19.82,3.32a0.61,0.61,0,0,0-.86,0l-6.9,6.89a0.61,0.61,0,1,0,.86.86l6.9-6.89A0.61,0.61,0,0,0,19.82,3.32ZM16.07,0.2a0.61,0.61,0,0,0-.86,0L8.31,7.09A0.61,0.61,0,1,0,9.18,8l6.9-6.89A0.61,0.61,0,0,0,16.07.2Z"/><path class="cls-3" d="M10.19,2.52L6.53,6.16a5.17,5.17,0,0,0,7.32,7.3L17.5,9.81Z"/><path class="cls-4" d="M10.61,5L8.42,7.2a3.1,3.1,0,1,0,4.39,4.38L15,9.4Z"/><path class="cls-3" d="M17.75,9.09L10.9,2.25A1.26,1.26,0,0,0,9.12,4L16,10.87A1.26,1.26,0,0,0,17.75,9.09Z"/></svg>