<svg xmlns="http://www.w3.org/2000/svg" width="12.814" height="14.485" viewBox="0 0.61 12.814 14.485"><path d="M12.205 14.525s-.515.32-5.806.32-5.787-.32-5.787-.32c-.666-.963-.331-2.563.336-3.207.334-.319 2.881-1.088 3.904-1.387-1.459-.85-2.354-2.82-2.354-4.668 0-2.439.712-4.418 3.916-4.418s3.915 1.979 3.915 4.418c0 1.778-.829 3.668-2.191 4.563.445.147 3.365 1.133 3.736 1.49.663.645.993 2.246.331 3.209zm-4.218-4.157h-.114l-.129-.636v-.303c1.278-.76 2.039-2.553 2.039-4.176 0-2.127-.562-3.852-3.368-3.852S3.048 3.127 3.048 5.254c0 1.848.983 3.92 2.6 4.43v.049l-.13.636H5.36c-1.727.489-3.741 1.147-4.04 1.368-.422.408-.717 1.56-.342 2.312.379.071 1.652.237 5.422.237 3.771 0 5.056-.166 5.439-.238.371-.756.08-1.904-.354-2.326-.257-.203-2-.856-3.498-1.354z"/><path d="M6.4 15.095c-4.979 0-5.792-.275-5.924-.36l-.069-.066c-.729-1.057-.396-2.793.368-3.528.254-.245 1.432-.681 3.505-1.3-1.215-.967-2.03-2.765-2.03-4.575 0-2.004.432-4.668 4.166-4.668 3.733 0 4.165 2.664 4.165 4.668 0 1.758-.753 3.489-1.912 4.479 1.154.395 3.045 1.07 3.381 1.396.758.735 1.088 2.474.362 3.528l-.073.068c-.281.176-1.986.358-5.939.358zm-5.62-.77c.179.049 1.225.271 5.62.271 4.309 0 5.41-.215 5.642-.277.512-.835.248-2.25-.34-2.819-.2-.193-1.729-.796-3.637-1.433l.015.068c1.208.402 3.229 1.13 3.562 1.389.539.521.834 1.8.426 2.634l-.057.111-.123.022c-.385.073-1.688.243-5.486.243-3.788 0-5.085-.17-5.469-.243l-.123-.022-.055-.11c-.415-.831-.125-2.104.391-2.603.408-.305 2.757-1.035 4.146-1.43l.022-.008.014-.066-.404.119c-2.401.701-3.641 1.172-3.802 1.326-.594.575-.861 1.996-.342 2.828zm.374-.501c.498.076 1.85.212 5.246.212 3.402 0 4.764-.136 5.265-.213.251-.67-.023-1.604-.353-1.923-.161-.125-1.646-.709-3.365-1.282h-.278l-.17-.835-.005-.495.122-.072c1.129-.67 1.917-2.299 1.917-3.96 0-2.558-.902-3.602-3.118-3.602-2.214 0-3.117 1.044-3.117 3.602 0 1.685.907 3.712 2.424 4.192l.175.056-.005.281-.17.835h-.329c-2.052.584-3.713 1.163-3.926 1.319-.302.293-.558 1.235-.313 1.885zM6.415 1.095c-2.569 0-3.666 1.247-3.666 4.168 0 1.858.917 3.688 2.229 4.452l.372.218.017-.083c-1.671-.669-2.57-2.828-2.57-4.596 0-1.909.411-4.102 3.617-4.102 3.207 0 3.618 2.192 3.618 4.102 0 1.77-.832 3.518-2.039 4.314v.056L8 9.62c1.244-.817 2.079-2.567 2.079-4.354.001-2.923-1.094-4.171-3.664-4.171z"/></svg>