<?xml version="1.0" encoding="utf-8"?>
<!-- Generator: Adobe Illustrator 21.0.0, SVG Export Plug-In . SVG Version: 6.00 Build 0)  -->
<svg version="1.1" id="Layer_1" xmlns="http://www.w3.org/2000/svg" xmlns:xlink="http://www.w3.org/1999/xlink" x="0px" y="0px"
	 viewBox="0 0 20 20" enable-background="new 0 0 20 20" xml:space="preserve">
<g>
	<g>
		<path fill="#F1F1F1" d="M1,17.3h18c0.5,0,1-0.5,1-1V4.7c0-0.6-0.5-1-1-1H1c-0.6,0-1,0.4-1,1v11.6C0,16.9,0.4,17.3,1,17.3z"/>
		<rect x="1.4" y="2.3" fill="#FF580E" width="5.3" height="1.7"/>
		<rect x="1.1" y="10.6" fill="#C9D0D3" width="6.3" height="0.7"/>
		<rect x="1.1" y="12.1" fill="#C9D0D3" width="3.5" height="0.7"/>
		<rect x="1.1" y="9.2" fill="#C9D0D3" width="6.3" height="0.7"/>
		<rect x="1.1" y="7.7" fill="#C9D0D3" width="6.3" height="0.7"/>
		<rect x="9.5" y="6.4" fill="#FFFFFF" width="9.4" height="8.3"/>
		<path fill="#FF580E" d="M15.3,10.4c0.5-0.3,0.8-0.9,0.8-1.5c0-1-0.8-1.8-1.8-1.8c-1,0-1.8,0.8-1.8,1.8c0,0.6,0.3,1.2,0.8,1.5
			c0.1,0,0.1,0.2,0,0.2c-1.2,0.4-2,1.5-2.1,2.8c0,0,0,0.1,0.1,0.1c0.9,0.3,1.9,0.4,3,0.4c1.1,0,2.1-0.2,3-0.4c0,0,0.1-0.1,0.1-0.1
			c0-1.3-0.9-2.4-2.1-2.8C15.2,10.6,15.2,10.5,15.3,10.4z"/>
	</g>
</g>
</svg>
