<?xml version="1.0" encoding="utf-8"?>
<!-- Generator: Adobe Illustrator 21.0.0, SVG Export Plug-In . SVG Version: 6.00 Build 0)  -->
<svg version="1.1" id="Layer_1" xmlns="http://www.w3.org/2000/svg" xmlns:xlink="http://www.w3.org/1999/xlink" x="0px" y="0px"
	 viewBox="0 0 20 20" enable-background="new 0 0 20 20" xml:space="preserve">
<g>
	<path fill="#FF800E" d="M20,13V7c0,0,0,0,0,0c0-0.2-0.1-0.4-0.2-0.5l-9.3-6.3c-0.3-0.3-0.7-0.3-1,0L0.2,6.5C0.1,6.6,0,6.8,0,7
		c0,0,0,0,0,0V13c0,0.2,0,0.4,0.2,0.6l9.3,6.3c0.1,0.1,0.2,0.1,0.3,0.2c0.1,0,0.1,0,0.2,0h0.1c0.1,0,0.1,0,0.2,0
		c0.1,0,0.2-0.1,0.3-0.2l9.3-6.3c0.1-0.1,0.1-0.2,0.2-0.3C20,13.2,20,13.1,20,13L20,13C20,13,20,13,20,13z"/>
	<polygon fill="#FFBD8D" points="10,1.1 18.8,7 10,12.9 1.2,7 	"/>
</g>
</svg>
