<svg xmlns="http://www.w3.org/2000/svg" width="7.318" height="13.783" viewBox="0.569 0 7.318 13.783"><path d="M3.513 11.193a.363.363 0 0 0-.363.362v1.455a.362.362 0 1 0 .724 0v-1.455a.362.362 0 0 0-.361-.362"/><path d="M3.513 13.749a.738.738 0 0 1-.738-.738v-1.455a.737.737 0 0 1 1.474 0v1.455a.738.738 0 0 1-.736.738zM4.24.374C2.068.374.969 1.109.969 2.556a.362.362 0 1 0 .725 0c0-.677.289-1.454 2.545-1.454 1.547 0 2.545.856 2.545 2.182 0 1.006-1.43 1.942-1.979 2.22-.067.034-1.656.854-1.656 3.231v.364a.361.361 0 1 0 .724 0v-.364c0-1.91 1.206-2.558 1.254-2.582.099-.048 2.384-1.21 2.384-2.871C7.513 1.571 6.166.374 4.24.374"/><path d="M3.513 9.839a.738.738 0 0 1-.738-.736v-.365c0-2.552 1.671-3.472 1.861-3.568.58-.292 1.772-1.137 1.772-1.886 0-1.114-.832-1.807-2.17-1.807-2.17 0-2.17.729-2.17 1.079a.74.74 0 0 1-.738.739.74.74 0 0 1-.737-.739C.593 1.389 1.226 0 4.239 0c2.148 0 3.648 1.35 3.648 3.284 0 1.927-2.567 3.194-2.595 3.208-.028.016-1.043.582-1.043 2.246v.364a.737.737 0 0 1-.736.737z"/></svg>