<?xml version="1.0" encoding="utf-8"?>
<!-- Generator: Adobe Illustrator 21.0.0, SVG Export Plug-In . SVG Version: 6.00 Build 0)  -->
<svg version="1.1" id="Layer_1" xmlns="http://www.w3.org/2000/svg" xmlns:xlink="http://www.w3.org/1999/xlink" x="0px" y="0px"
	 viewBox="0 0 20 20" enable-background="new 0 0 20 20" xml:space="preserve">
<g>
	<path fill-rule="evenodd" clip-rule="evenodd" fill="#DDDDDD" d="M8.2,14.5c0-3.5,2.8-6.3,6.3-6.3V2.1c0-1.2-0.9-2.1-2.1-2.1H2.1
		C1,0,0.1,0.9,0.1,2.1v13.7c0,1.2,0.9,2.1,2.1,2.1h7C8.5,16.9,8.2,15.7,8.2,14.5z"/>
	<path fill-rule="evenodd" clip-rule="evenodd" fill="#70BE44" d="M2.8,13.7h3.7v-1.4H2.8V13.7z M2.8,9.6h6.9V8.2H2.8V9.6z
		 M2.8,11.7h5.1v-1.4H2.8V11.7z M2.8,7.5h8.9V6.2H2.8V7.5z M2.8,4.1v1.4h6.9V4.1H2.8z"/>
	<circle fill-rule="evenodd" clip-rule="evenodd" fill="#2473E4" cx="14.5" cy="14.5" r="5.5"/>
	<g id="Page-1_3_">
		<g id="icon-24-key_3_">
			<path id="key_3_" fill="#FFFFFF" d="M14.9,15.2l-1.1,1.1h-0.7V17h-0.7v0.7h-1.2v-1.2l2.5-2.5c-0.1-0.2-0.1-0.4-0.1-0.7
				c0-1.1,0.9-2,2-2s2,0.9,2,2s-0.9,2-2,2C15.4,15.4,15.2,15.3,14.9,15.2L14.9,15.2L14.9,15.2z M16.9,12.8c0-0.4-0.3-0.7-0.7-0.7
				c-0.4,0-0.7,0.3-0.7,0.7c0,0.4,0.3,0.7,0.7,0.7C16.6,13.5,16.9,13.2,16.9,12.8L16.9,12.8z"/>
		</g>
	</g>
</g>
</svg>
