<svg data-name="Layer 1" xmlns="http://www.w3.org/2000/svg" viewBox="0 0 14 16.01"><title>notification</title><path d="M14 9.2c0 .1-.8 1.3-3 1.3a6 6 0 0 1-2.7-.7 10.5 10.5 0 0 0-4.6-.9 13 13 0 0 0-2.6.4v6.19a.47.47 0 0 1-.42.51H.55a.47.47 0 0 1-.55-.5V1a10.38 10.38 0 0 1 4.4-1 10.75 10.75 0 0 1 4.2 1 6.08 6.08 0 0 0 2.5.6A3.09 3.09 0 0 0 14 .16v9zm-1.11-6.89a3.89 3.89 0 0 1-1.79.39A7 7 0 0 1 8.24 2 9.07 9.07 0 0 0 4.6 1a10.8 10.8 0 0 0-3.5.56V8.2a9.27 9.27 0 0 1 2.8-.4 11.19 11.19 0 0 1 5 1.1 5.32 5.32 0 0 0 2.3.5 2.66 2.66 0 0 0 1.7-.53l-.01-6.56z"/></svg>