<svg id="Layer_1" data-name="Layer 1" xmlns="http://www.w3.org/2000/svg" viewBox="0 0 20 20"><defs><style>.cls-1{fill:#bbb;}.cls-2{fill:gray;}.cls-3{fill:#70be44;}.cls-4{fill:#fff;}</style></defs><title>_</title><rect class="cls-1" x="1.08" y="11.3" width="18.43" height="2.16"/><rect class="cls-2" y="8.64" width="2.16" height="7.48" rx="1" ry="1"/><path class="cls-3" d="M19,8.64h-0.2a1,1,0,0,0-.65.26V7.67a1,1,0,0,0-1-1H6a1,1,0,0,0-1,1v1H5a1,1,0,0,0-1,1v5.52a1,1,0,0,0,1,1H5.25a3,3,0,0,0,2.76,2h9.18a1,1,0,0,0,1-1V15.86a1,1,0,0,0,.65.26H19a1,1,0,0,0,1-1V9.62A1,1,0,0,0,19,8.64Z"/><path class="cls-2" d="M15.15,1.37H7.34a1,1,0,0,0-1,1V3a1,1,0,0,0,1,1h2V5.66h3.78V4h2a1,1,0,0,0,1-1V2.35A1,1,0,0,0,15.15,1.37Z"/><path class="cls-4" d="M9.72,13.57a0.84,0.84,0,1,1,.84-0.84A0.82,0.82,0,0,1,9.72,13.57Zm3.36-.28V12.17h-0.9a2,2,0,0,0-.34-0.78l0.64-.64L11.74,10l-0.64.64a3,3,0,0,0-.81-0.36V9.37H9.16v0.9a3,3,0,0,0-.81.34L7.73,10l-0.78.76,0.64,0.64a3.28,3.28,0,0,0-.34.78H6.36v1.12h0.9a2.27,2.27,0,0,0,.34.81l-0.64.64L7.7,15.53l0.64-.64a3.91,3.91,0,0,0,.78.34v0.87h1.12V15.2A2,2,0,0,0,11,14.86l0.64,0.64,0.76-.78-0.64-.64a2.27,2.27,0,0,0,.34-0.81h1v0Z"/><path class="cls-4" d="M15.15,11.33a0.53,0.53,0,1,1,.53-0.53A0.54,0.54,0,0,1,15.15,11.33Zm2.13-.27V10.53H16.72a1.84,1.84,0,0,0-.27-0.67l0.4-.4-0.37-.37-0.4.4a1.47,1.47,0,0,0-.67-0.27V8.67H14.88V9.23a1.85,1.85,0,0,0-.67.27l-0.4-.4-0.37.37,0.4,0.4a1.47,1.47,0,0,0-.27.67H13v0.53h0.56a1.84,1.84,0,0,0,.27.67l-0.4.4,0.37,0.37,0.4-.4a1.47,1.47,0,0,0,.67.27v0.56h0.53V12.37a1.84,1.84,0,0,0,.67-0.27l0.4,0.4,0.37-.37-0.4-.4a1.47,1.47,0,0,0,.27-0.67h0.56Z"/></svg>