<svg id="Layer_1" data-name="Layer 1" xmlns="http://www.w3.org/2000/svg" viewBox="0 0 20 20"><defs><style>.cls-1{fill:#ecf0f1;}.cls-2{fill:#2473e4;}.cls-3{fill:#989898;}.cls-4{fill:#414042;}</style></defs><title>_</title><path class="cls-1" d="M19.88,18.52A1.48,1.48,0,0,1,18.39,20H1.61A1.48,1.48,0,0,1,.12,18.52V6.17H19.88V18.52Z"/><path class="cls-2" d="M19.88,6.17H0.12v-3A1.48,1.48,0,0,1,1.61,1.73H18.39a1.48,1.48,0,0,1,1.48,1.48v3Z"/><path class="cls-3" d="M4.81,3.46a0.74,0.74,0,0,1-1.48,0V0.74a0.74,0.74,0,1,1,1.48,0V3.46Z"/><path class="cls-3" d="M16.67,3.46a0.74,0.74,0,0,1-1.48,0V0.74a0.74,0.74,0,1,1,1.48,0V3.46Z"/><path class="cls-4" d="M5.66,14.64a1.91,1.91,0,0,0,.16.84,1.12,1.12,0,0,0,1.1.62,1.22,1.22,0,0,0,.86-0.34,1.25,1.25,0,0,0,.37-1,1.09,1.09,0,0,0-.68-1.12,3.43,3.43,0,0,0-1.21-.16v-1.2a3.14,3.14,0,0,0,1.13-.16,1,1,0,0,0,.55-1,1.12,1.12,0,0,0-.28-0.79,1,1,0,0,0-.8-0.3,1,1,0,0,0-.87.38,1.6,1.6,0,0,0-.27,1H4.17a4.19,4.19,0,0,1,.22-1.2A2.7,2.7,0,0,1,5,9.33a2.24,2.24,0,0,1,.78-0.46,3.37,3.37,0,0,1,1.11-.16,2.94,2.94,0,0,1,2,.63A2.1,2.1,0,0,1,9.62,11a1.87,1.87,0,0,1-.45,1.27,1.52,1.52,0,0,1-.59.44,1.21,1.21,0,0,1,.66.39,2.1,2.1,0,0,1,.64,1.62,2.73,2.73,0,0,1-.75,1.9,2.84,2.84,0,0,1-2.21.82,2.67,2.67,0,0,1-2.5-1.18A3.5,3.5,0,0,1,4,14.64H5.66Z"/><path class="cls-4" d="M11.2,11.39V10.25a7.35,7.35,0,0,0,1.1-.11,1.56,1.56,0,0,0,.82-0.45,1.47,1.47,0,0,0,.33-0.61,1.4,1.4,0,0,0,.06-0.34h1.39v8.5H13.2V11.39h-2Z"/></svg>