<?xml version="1.0" encoding="utf-8"?>
<!-- Generator: Adobe Illustrator 21.0.0, SVG Export Plug-In . SVG Version: 6.00 Build 0)  -->
<svg version="1.1" id="Layer_1" xmlns="http://www.w3.org/2000/svg" xmlns:xlink="http://www.w3.org/1999/xlink" x="0px" y="0px"
	 viewBox="0 0 20 20" enable-background="new 0 0 20 20" xml:space="preserve">
<g>
	<g>
		<path fill="#ADD6FF" d="M6.6,13.7c0.5-0.4,1-0.8,1.7-1c0.1,0,0.2-0.2,0-0.3c-0.8-0.6-1.4-1.5-1.4-2.6c0-0.6,0.2-1.1,0.5-1.6
			C7.3,8.2,7.1,8.1,7,8C6.9,8,6.9,7.8,7,7.7c0.8-0.6,1.4-1.5,1.4-2.6c0-1.7-1.4-3-3-3.1c-1.7,0-3.1,1.4-3.1,3.1c0,1.1,0.5,2,1.4,2.6
			C3.7,7.8,3.7,8,3.5,8c-2,0.7-3.4,2.6-3.5,4.8C0,12.9,0,13,0.1,13c1.5,0.4,3.3,0.7,5.1,0.7C5.7,13.7,6.1,13.7,6.6,13.7z"/>
		<path fill="#ADD6FF" d="M16.5,8c-0.1-0.1-0.1-0.2,0-0.3c0.8-0.6,1.4-1.5,1.4-2.6c0-1.7-1.4-3-3-3.1c-1.7,0-3.1,1.4-3.1,3.1
			c0,1.1,0.5,2,1.4,2.6C13.2,7.8,13.2,8,13,8c-0.1,0.1-0.3,0.1-0.4,0.2c0.3,0.5,0.5,1,0.5,1.6c0,1.1-0.5,2-1.4,2.6
			c-0.1,0.1-0.1,0.2,0,0.3c0.6,0.2,1.2,0.6,1.6,1c0.5,0,0.9,0.1,1.4,0.1c1.9,0,3.6-0.3,5.1-0.7c0.1,0,0.1-0.1,0.1-0.2
			C19.9,10.6,18.5,8.8,16.5,8z"/>
	</g>
	<path fill="#FF580E" d="M10,17.9c-1.6,0-3.3-0.2-4.7-0.6c0.2-1.9,1.4-3.5,3.2-4.1c0.2-0.1,0.4-0.3,0.5-0.6c0-0.3-0.1-0.5-0.3-0.6
		c-0.7-0.5-1.1-1.3-1.1-2.1c0-1.4,1.2-2.6,2.6-2.6c1.4,0,2.6,1.2,2.6,2.6c0,0.9-0.4,1.7-1.1,2.1c-0.2,0.1-0.3,0.3-0.3,0.5
		c0,0.2,0.1,0.5,0.3,0.6l0.1,0l0.1,0c1.8,0.6,3,2.2,3.2,4.1C13.2,17.7,11.6,17.9,10,17.9z"/>
</g>
</svg>
